/* XPM */
static char *_68d6ec7eb064bfddc3a9a29434088aaTHGY67o4tHhOaZmz[] = {
/* columns rows colors chars-per-pixel */
"64 64 213 2 ",
"   c #1D0C35",
".  c #210D3C",
"X  c #241436",
"o  c #2B1A3D",
"O  c #2E2A2C",
"+  c #494C39",
"@  c #545F3E",
"#  c #5E702E",
"$  c #687336",
"%  c #2E144A",
"&  c #2F2543",
"*  c #372947",
"=  c #3C2C55",
"-  c #3C3253",
";  c #3F1E63",
":  c #411D5D",
">  c #48285D",
",  c #4B3859",
"<  c #51375E",
"1  c #482765",
"2  c #52276B",
"3  c #583869",
"4  c #572679",
"5  c #5F3B71",
"6  c #633976",
"7  c #64357C",
"8  c #47474B",
"9  c #565C46",
"0  c #4D475B",
"q  c #70745D",
"w  c #5C436F",
"e  c #674178",
"r  c #6E5175",
"t  c #757767",
"y  c #76746D",
"u  c #8F7571",
"i  c #78921F",
"p  c #76804D",
"a  c #7C806D",
"s  c #99B132",
"d  c #A2BB3F",
"f  c #9AC21A",
"g  c #A9DA1A",
"h  c #B3EA0E",
"j  c #B8F30A",
"k  c #B3E615",
"l  c #B5E913",
"z  c #B9EE16",
"x  c #B5E61D",
"c  c #B6E91B",
"v  c #BAED1B",
"b  c #B9F017",
"n  c #BCF11B",
"m  c #9FC826",
"M  c #AFDC2F",
"N  c #B1DC29",
"B  c #A6C534",
"V  c #B3DB39",
"C  c #B6E622",
"Z  c #B7E724",
"A  c #BAEC24",
"S  c #B8E729",
"D  c #BBEA2B",
"F  c #BEF129",
"G  c #B7E232",
"H  c #BAE533",
"J  c #BDEA33",
"K  c #BCE53C",
"L  c #BFEA3A",
"P  c #C0EF2F",
"I  c #C2F62A",
"U  c #C0EE35",
"Y  c #C1EE3A",
"T  c #C5F338",
"R  c #899F55",
"E  c #8EA54F",
"W  c #A7BF5C",
"Q  c #8E816F",
"!  c #92926C",
"~  c #848777",
"^  c #959E7A",
"/  c #9BAC6C",
"(  c #97A27F",
")  c #A1B36E",
"_  c #ACB677",
"`  c #B1B779",
"'  c #A6C64D",
"]  c #AFD24B",
"[  c #B6DA43",
"{  c #BAD657",
"}  c #BCE248",
"|  c #BEE153",
" . c #B3CA6A",
".. c #BDD769",
"X. c #B5C570",
"o. c #C0DC5C",
"O. c #C2EC43",
"+. c #C1E84A",
"@. c #C4EA54",
"#. c #C1E35F",
"$. c #C0DB68",
"%. c #C5E367",
"&. c #5D1A97",
"*. c #5E2D80",
"=. c #652E84",
"-. c #683785",
";. c #6D3C8B",
":. c #713797",
">. c #773997",
",. c #6F22A8",
"<. c #722DA1",
"1. c #6D36A0",
"2. c #7E3BA4",
"3. c #7630B6",
"4. c #724E82",
"5. c #76468C",
"6. c #6C5485",
"7. c #734494",
"8. c #7D4494",
"9. c #78489A",
"0. c #777186",
"q. c #7D4AA9",
"w. c #7D45B5",
"e. c #843DAB",
"r. c #883CB7",
"t. c #804596",
"y. c #844A9B",
"u. c #884E9E",
"i. c #8D6D95",
"p. c #8A49AC",
"a. c #8A58A6",
"s. c #9052A7",
"d. c #9353AB",
"f. c #9955AF",
"g. c #8A43B3",
"h. c #8443B9",
"j. c #944BB9",
"k. c #9A57B1",
"l. c #9C59B4",
"z. c #9953BA",
"x. c #9F5BBA",
"c. c #A05CB6",
"v. c #A25DBB",
"b. c #8965A0",
"n. c #9779A7",
"m. c #9769B5",
"M. c #A562BE",
"N. c #A963BF",
"B. c #A57AB4",
"V. c #8D43C1",
"C. c #9A4CC8",
"Z. c #9850C0",
"A. c #A55BC3",
"S. c #A55BCC",
"D. c #A65ED0",
"F. c #A465C2",
"G. c #AA63C4",
"H. c #A96BC4",
"J. c #AE65CA",
"K. c #AD6ACB",
"L. c #B06BCD",
"P. c #B172CE",
"I. c #A863D3",
"U. c #B46DD3",
"Y. c #B96FDA",
"T. c #B570D3",
"R. c #B975D5",
"E. c #BD74DC",
"W. c #BE79DD",
"Q. c #B96DE1",
"!. c #BF77E0",
"~. c #BF78E2",
"^. c #C079DF",
"/. c #C176E4",
"(. c #C47BE6",
"). c #C87DE7",
"_. c #C67DE9",
"`. c #C97EEB",
"'. c #CA7EF0",
"]. c #939986",
"[. c #A38994",
"{. c #AB9A9B",
"}. c #99A287",
"|. c #ADAC85",
" X c #A9A896",
".X c #B4AE9C",
"XX c #B6BA99",
"oX c #AF94B6",
"OX c #BB9ABD",
"+X c #B4ADA9",
"@X c #C1AAA1",
"#X c #C3C391",
"$X c #BB86CE",
"%X c #C29BCE",
"&X c #C98FDF",
"*X c #C883E9",
"=X c #CB81EC",
"-X c #D48EED",
";X c #D696EB",
":X c #CE81F1",
">X c #D184F4",
",X c #D688F6",
"<X c #D687F8",
"1X c #DC98F2",
"2X c #E59EFB",
"3X c #DDA6EB",
"4X c #E7A6F8",
"5X c #F3BAFC",
"6X c #FEB9FF",
"7X c #E5CACA",
"8X c #F9C7FD",
"9X c #FED7FE",
"0X c #FFE3FF",
/* pixels */
"x x x x x x x x x x x x x x x x x x x x x x x x x x x x x x x x x x x x x x x x x x x x x x x x x x x x x x x x x x x x x x x x ",
"x x x x x x x x x x x x x x x x x x x x x x x x x x x x x x x x x x x x x x x x x x x x x x x x x x x x x x x x x x x x x x x x ",
"x x x x x x x x x x x x x x x x x x x x x x x x x x x x x x x x x x x x x x x x x x x x x x x x x x x x x x x x x x x x x x x x ",
"x x x x x x x x x x x x x x x x x x x x x x x x x x x x x x x x x x x x x x x x x x x x x x x x x x x x x x x x x x x x x x x x ",
"x x x x x x x x x x x x x x x x x x x x x x x x x x x x x x x x x x x x x x x x x x x x x x x x x x x x x x x x x x x x x x x x ",
"x x x x x x x x x x x x x x x x x x x x x x x x x x x x x x x x x x x x x x x x x x x x x x x x x x x x x x x x x x x x x x x x ",
"x x x x x x x x x x x x x x x x x x x x x x x x x x x x x x x x x x x x x x x x x x x x x x x x x x x x x x x x x x x x x x x x ",
"x x x x x x x x x x x x x x x x x x x x x x x x x x x x x x x x x x x x x x x x x x x x x x x x x x x x x x x x x x x x x x x x ",
"x x x x x x x x x x x x x x x x x x x x x x x x x x x x x x x x x x x x x x x x x x x x x x x x x x x x x x x x x x x x x x x x ",
"x x x x x x x x x x x x x x x x x x x x x x x x x x x x x x x x x x x x x x x x x x x x x x x x x x x x x x x x x x x x x x x x ",
"x x x x x x x x x x x x x x x x x x x x x x x x x x x x x x x x x x x x x x x x x x x x x x x x x x x x x x x x x x x x x x x x ",
"x x x x x x x x x x x x x x x x x x x x x x x x x x x x x x x x x x x x x x x x x x x x x x x x x x x x x x x x x x x x x x x x ",
"x x x x x x x x x x x x x x x x x x x x x x x x x x x x x x x x x x x x x x x x x x x x x x x x x x x x x x x x x x x x x x x x ",
"x x x x x x x x x x x x x x x x x x x x x x x x x x x x x x x x x x x x x x x x x x x x x x x x x x x x x x x x x x x x x x x x ",
"x x x x x x x x x x x x x x x x x x x x x x x x x x C x x x x x x x x x x x x x x x x x x x x x x x x x x x x x x x x x x x x x ",
"x x x x x x x x x x x x x x x x x x x x x x x x x x C x x x x x x x x x x x x x x x x x x x x x x x x x x x x x x x x x x x x x ",
"x x x x x x x x x x x x x x x x x x x x x x x x x x Z Z l v v z x x x x x x C x x x x x x x x x x x x x x x x x x x x x x x x x ",
"x x x x x x x x x x x x x x x x x x x x x x x x x x x c X..X/ ' S k x x l z z v x x x x x x x x x x x x x x x x x x x x x x x x ",
"x x x x x x x x x x x x x x x x x x x x x x C S C v O.o.[.1.% * ^ O.c Z  .W ' ] J k x x x x x x x x x x x x x x x x x x x x x x ",
"x x x x x x x x x x x x x x x x C x x x k c D J L ...X@X7X;XF.8.1 ].I XX9.= & - }.J k x x x x x x x x x x x x x x x x x x x x x ",
"x x x x x x x x x x x x x x x x x C Z C K | +.I d 1.F.4X9X5X,XJ.5.;.r m.%XOXB.5., ^ I c x x x x x x x x x x x x x x x x x x x x ",
"x x x x x x x x x x x x x x x x S Y { {.B.a.b.Q 6 ,.E.1X;X*XW.v.x.Z.C.&X0X0X6X,Xy.< E C c x x x x x x x x x x x x x x x x x x x ",
"x x x x x x x x x x x x x x x x A { OX&XR.z.r.r.V.Y.=X(./.~.T.G.K./.,X4X8X5X;X<XE.: + M v x x x x x x x x x x x x x x x x x x x ",
"x x x x x x x x x x x x x x k Z #X$X3X9X8X2X)._.=X=X`.(.(./.E.E.(.)._.*X-X-X(._.U.-.w +XP k x x x x x x x x x x x x x x x x x x ",
"x x x x x x x x x x x x x x k { I.U.5X9X5X1X`.`.`.(.`.:X(.(.(._.(.(.(.(./.(._.(.G.l.2.w._ j v Z C x x x x x x x x x x x x x x x ",
"x x x x x x x x x x x x x x J } e j.2X4X-X/.(.(._.(.F.M./._.(._.(.(.=X:X(.(.).(.L.v.A.r.p.` G F C x x x x x x x x x x x x x x x ",
"x x x x x x x x x x x x x x S P $ 7.(.`.(./.(.(.:X*X4.6 W.:X(.(.(.(.T.K./.(.(._.(.Y.E.(.I.3.7.` J c x x x x x x x x x x x x x x ",
"x x x x x x x x x x x C L x S U  .0 5.:X'.(.(.(._.(.H.P.:X`.(.(.`._.5.5 E.:X(.(._.(.(.=X_.I.C.h. Xv x x x x x x x x x x x x x x ",
"x x x x x x x x x x x C O.C S U #.0 3 =X:X(.(._.(.L.E.`.(.(.=X=X>X>XH.m.(.`.(.(.(._.(.(.(.=X>XS.-.E A x x x x x x x x x x x x x ",
"x x x x x x x x x x x x x x J J O.) w y._.`.(.(.`.E.z.*.5 H.`.*X_.*X=X>X_.(.(.(.(.(.(.(.(./.>X(.> 9 C c x x x x x x x x x x x x ",
"x x x x x x x x x x x x h x J S U Z @ > /.>X(.(.(.=XD.;.e d.p.6 < 3 ;.Z.U.(._.(.(.(.(.(.(./.>X(.1 9 g z x x x x x x x x x x x x ",
"x x x x x x x x x x x x x x x x x v # 1 /.>X(.(.(.(._.*X/.S.>.1 * * 4 g.U.(._.(.(.(.(.(.(.(.:XE.4 y C c x x x x x x x x x x x x ",
"x x x x x x x x x x x x x x x x x n p 4 /.:X(.(.(.(._.=X=X_./.W.W.W.^.(.(.(.(.(.(.(.(.(.(.=X(.y.7.|.v x x x x x x x x x x x x x ",
"x x x x x x x x x x x x x x C S A $.m.g.(.*X(.(.(.(.(.(.(._.=X>X>X>X:X*X_.(.(.(.(.(.(.(._.:XU.> i.%.k x x x x x x x x x x x x x ",
"x x x x x x x x x x k x x x x x D n.V./.=X(.(.(.(.(.(.(.(.(.(.(.(.(.(.(.(.(.(.(.(.(.(._.(.U.M.y.1.{.c k x x x x x x x x x x x x ",
"x x x x x x x x x C x x x x x h { q.r.=X*X(.(.(.(.(.(.(.(.(.(.(.(.(.(.(.(.(.(.(.(.(.(._.!.v.l.z.,.i.[ J x x x x x x x x x x x x ",
"x x x x x x x x k Z S x x C D D q 9.Q.`.(.(.(.(.(.(.(.(.(.(.(.(.(.(.(.(.(.(.(.(.(.(.(._./.G.l.l.p.5 ~ @.Z x x x x x x x x x x x ",
"x x x x x x x x k x x x x c %.y 3 H.>X(.(.(.(.(.(.(.(.(.(.(.(.(.(.(.(.(.(.(.(.(.(.(.(.(.(.E.v.c.c.4 6.@.D Z C x x x x x x x x x ",
"x x x x x x x x x x x x x n ! 2 F.,X_.(.(.(.(.(.(.(.(.(.(.(.(.(.(.(.(.(.(.(.(.(.(.(.(.(.(.E.v.k.l.e.q.` T D S x x x x x x x x x ",
"x x x x x x x x x x x x v [ =.e.E.`._._.(.(.(.(.(.(.(.(.(.(.(.(.(.(.(.(.(.(.(.(.(.(.(.`.(.J.l.k.l.v.e.5.W T c x x x x x x x x x ",
"x x x x x x x x x x x Z +.oX<.j.v.L./.(._.`._._._._.(.(.(.(.(.(.(.(.(.(.(.(._.(._.(._.`.U.l.k.l.l.c.v.;., _ @.x x x x x x x x x ",
"x x x x x x x x x x D L  X1.p.c.k.l.G.Y././.!.!.!./.(.(.(.(.(.(.(.(.(.(._.(.E./././._.Y.x.k.l.l.l.l.v.v.7 = XXU k x x x x x x x ",
"x x x x x x x x x x Z J a % s.G.k.k.k.v.v.v.v.v.v.J.E._._.(.(.(.(.(.(._._.E.J.T.L.U.T.v.k.k.l.l.l.l.l.J.8.   XT k x x x x x x x ",
"x x x x x x x x x x x v R % u.N.k.l.l.l.k.f.f.f.f.l.U._._._._._._.(.E.E.E.K.L.K.L.K.x.f.l.l.l.l.l.k.l.G.:.O ] A x x x x x x x x ",
"x x x x x x x x x x x x H t > s.G.l.l.l.l.v.v.c.l.k.v.L.E.(.(._._./.K.v.K.L.K.U.L.M.l.v.v.x.l.l.k.l.v.S.u f Z x x x x x x x x x ",
"x x x x x x x x x x x x v ] O 5.J.v.c.v.v.v.x.l.v.l.k.l.G.L.L.L.L.G.v.f.x.G.v.G.F.l.l.v.v.c.x.x.l.c.A.i.N N G C x x x x x x x x ",
"x x x x x x x x x x x x x +.t 1 4 s.J.J.u.> 2 <.e.d.l.l.k.k.k.k.k.k.k.l.k.k.l.l.v.p.=.> 2 2.x.A.A.8.2 s S K L C x x x x x x x x ",
"x x x x x x x x x x x x x k { 9 O 3 7 6 3 8 9 4.&.2.N.v.k.k.k.k.k.l.l.l.k.l.N.v.g.h.6.8 , 4 7 e >.7 # x H J C x x x x x x x x x ",
"x x x x x x x x x x x x x x v k m q * & 0...b | m.<.>.u.G.G.G.G.G.G.G.G.G.v.;.=.5.|.$.} V B f f s B x c Z x x x x x x x x x x x ",
"x x x x x x x x x x x x x x x v A K V ] | v c v %.n.; > 8.y.8.t.t.t.8.t.y.;.+ i M F D J D A A A v v c x x x x x x x x x x x x x ",
"x x x x x x x x x x x x x x x x x Z A z l x x x h }  .~ & X o o o o o o . # S F S C D J C x C C x x x x x x x x x x x x x x x x ",
"x x x x x x x x x x x x x x x x x x x x x x x x x k n J / ].}.}.}.}.}.}.( M c x x x x x x x x x x x x x x x x x x x x x x x x x ",
"x x x x x x x x x x x x x x x x x x x x x x x x x x x x D Y Y Y Y Y Y Y U c x x x x x k x x x x x x x x x x x x x x x x x x x x ",
"x x x x x x x x x x x x x x x x x x x x x x x x x x x x k l l l l l l l k x x x x x x x x x x x x x x x x x x x x x x x x x x x ",
"x x x x x x x x x x x x x x x x x x x x x x x x x x x x x x x x x x x x x x x x x x x x x x x x x x x x x x x x x x x x x x x x ",
"x x x x x x x x x x x x x x x x x x x x x x x x x x x x x x x x x x x x x x x x x x x x x x x x x x x x x x x x x x x x x x x x ",
"x x x x x x x x x x x x x x x x x x x x x x x x x x x x x x x x x x x x x x x x x x x x x x x x x x x x x x x x x x x x x x x x ",
"x x x x x x x x x x x x x x x x x x x x x x x x x x x x x x x x x x x x x x x x x x x x x x x x x x x x x x x x x x x x x x x x ",
"x x x x x x x x x x x x x x x x x x x x x x x x x x x x x x x x x x x x x x x x x x x x x x x x x x x x x x x x x x x x x x x x ",
"x x x x x x x x x x x x x x x x x x x x x x x x x x x x x x x x x x x x x x x x x x x x x x x x x x x x x x x x x x x x x x x x ",
"x x x x x x x x x x x x x x x x x x x x x x x x x x x x x x x x x x x x x x x x x x x x x x x x x x x x x x x x x x x x x x x x ",
"x x x x x x x x x x x x x x x x x x x x x x x x x x x x x x x x x x x x x x x x x x x x x x x x x x x x x x x x x x x x x x x x ",
"x x x x x x x x x x x x x x x x x x x x x x x x x x x x x x x x x x x x x x x x x x x x x x x x x x x x x x x x x x x x x x x x ",
"x x x x x x x x x x x x x x x x x x x x x x x x x x x x x x x x x x x x x x x x x x x x x x x x x x x x x x x x x x x x x x x x "
};
