/* XPM */
static char *_e1ac025446b4147da104dd35683155b8zcfB3FDBRbWQUxm[] = {
/* columns rows colors chars-per-pixel */
"64 64 143 2 ",
"   c #7DCA7B",
".  c #BFEB07",
"X  c #BDEA0D",
"o  c #B7E717",
"O  c #B8E716",
"+  c #BAE814",
"@  c #B5E61C",
"#  c #B8E718",
"$  c #B7E819",
"%  c #B8E818",
"&  c #A7DF36",
"*  c #A8DF36",
"=  c #A5DF3C",
"-  c #A8DF39",
";  c #AFE327",
":  c #AEE32B",
">  c #B2E523",
",  c #B0E429",
"<  c #A7E036",
"1  c #AAE133",
"2  c #A7E03B",
"3  c #A9E039",
"4  c #C1EB06",
"5  c #C0EB09",
"6  c #97D647",
"7  c #9FDC46",
"8  c #9DDB4D",
"9  c #8DD25C",
"0  c #96D755",
"q  c #97D856",
"w  c #9BDA54",
"e  c #95D75C",
"r  c #96D85C",
"t  c #99D95A",
"y  c #A2DE43",
"u  c #A1DD4A",
"i  c #86CF6F",
"p  c #88CF6A",
"a  c #8DD365",
"s  c #8DD46C",
"d  c #92D664",
"f  c #94D863",
"g  c #98DB65",
"h  c #91D66A",
"j  c #81CD74",
"k  c #82CE7B",
"l  c #88CF7E",
"z  c #87D176",
"x  c #8BD274",
"c  c #86D17D",
"v  c #89D27B",
"b  c #91D571",
"n  c #6BBF8D",
"m  c #65BE97",
"M  c #69BF94",
"N  c #66BE9B",
"B  c #69BF9A",
"V  c #5EBAAA",
"C  c #5FBBB0",
"Z  c #64BDA3",
"A  c #63BEAA",
"S  c #62BEB2",
"D  c #6FC28F",
"F  c #76C687",
"G  c #78C782",
"H  c #7DCC84",
"J  c #74C68B",
"K  c #77C88D",
"L  c #7DCC8D",
"P  c #6CC294",
"I  c #67C09C",
"U  c #6CC29C",
"Y  c #72C594",
"T  c #76C995",
"R  c #7CCC94",
"E  c #71C49D",
"W  c #76C99C",
"Q  c #7BCC9A",
"!  c #67C0A4",
"~  c #6CC3A3",
"^  c #67C1AA",
"/  c #6DC5AB",
"(  c #6FC8AE",
")  c #72C7A4",
"_  c #7DC6A5",
"`  c #74C9A3",
"'  c #74C9A5",
"]  c #76CAA4",
"[  c #78C9A4",
"{  c #7CCCA4",
"}  c #72C7A9",
"|  c #70C7AC",
" . c #71C9AB",
".. c #76CAA8",
"X. c #75CAAB",
"o. c #70C8AF",
"O. c #79CCAA",
"+. c #7ACCAB",
"@. c #79CEAB",
"#. c #7CCEAB",
"$. c #7ED0A0",
"%. c #7ED0AD",
"&. c #65C1B3",
"*. c #64C0B6",
"=. c #6CC4B3",
"-. c #6DC5B3",
";. c #6FC7B3",
":. c #6FC8B0",
">. c #6EC8B4",
",. c #66C2BB",
"<. c #6BC4BB",
"1. c #6FC8BC",
"2. c #72C7B2",
"3. c #73CBB2",
"4. c #74CBB3",
"5. c #77CCB3",
"6. c #75CDB4",
"7. c #78CCB2",
"8. c #7ACDB3",
"9. c #79CDB5",
"0. c #73CABB",
"q. c #7ACFB8",
"w. c #7ACEBB",
"e. c #6EC8C2",
"r. c #78CEC3",
"t. c #84CF83",
"y. c #84CF85",
"u. c #81CE8A",
"i. c #85D083",
"p. c #89D281",
"a. c #8AD381",
"s. c #84D18B",
"d. c #8AD48D",
"f. c #80CE92",
"g. c #80CF94",
"h. c #80CF9C",
"j. c #83D191",
"k. c #88D293",
"l. c #81D09A",
"z. c #81CAA7",
"x. c #82D1A3",
"c. c #82D2AD",
"v. c #81D1B0",
/* pixels */
"_ U U E E E U U U U E E U U I U U U U U U U E E E U U U U E E E U B U U U U U E U E ) U U U U U E E U U I U U U U U U U U E E U ",
"z.` ..5.4.3./ ( 3.5.5.q./ Z ^ I ] ` ` `  .:.5.3.6./ o./ 4.9.9.o.Z ^ Z ` ` `  .| | 7.6.6.o./ ( 3.9.9.6.Z ^ Z ) ] ` ` ] / 4.6.6.3.",
"z.) Q x h h h h s c x h s p a R ) ] ` ) t.h p.h h s x x x x b h a s x W ` ..u.s z v h h h h h v v h h s a l ` ) [ ) Q h v x d h ",
"z./ v X + + + + + O + + + O 5 s 2.O.O.;.q 4 O + + + O O O O + + + X : g.O.6.w . O O + + + + + O O + + O 5 3 o.O.O.o.L + + + + + ",
"z./ c O @ @ @ @ @ @ @ @ @ @ O v o.] ] ;.r + @ @ @ @ @ @ @ @ @ @ @ @ o 3 ]  .u + @ @ @ @ @ @ @ @ @ @ @ @ + y ( ] ] o.R @ @ @ @ @ ",
"z./ c O @ @ @ @ @ @ @ @ @ @ @ : , , : : > @ @ @ @ @ @ @ @ @ @ @ @ @ + 3 } ] 8 O @ @ @ @ @ @ @ @ @ @ @ @ @ > : ; : : 1 @ @ @ @ @ ",
"z./ c O @ @ @ @ @ @ @ @ @ @ @ : d e d s = O @ @ @ @ @ @ @ @ @ @ @ + @ v } / f + @ @ @ @ @ @ @ @ @ @ @ @ @ @ w h e 3 . @ @ @ @ @ ",
"z./ c O @ @ @ @ @ @ @ @ @ @ O z S Z Z *.d + @ @ @ @ @ @ @ @ @ @ @ 1 s ^ I Z e + @ @ @ @ @ @ @ @ @ @ @ @ O 2 ^ A V k 2 @ @ @ @ @ ",
"z./ c O @ @ @ @ @ @ @ @ @ @ O z ^ U I / r + @ @ @ @ @ @ @ @ @ @ O y.;.E ) ! 0 O > @ @ @ @ @ @ @ @ @ @ @ O = / U U ^ Q , @ @ @ @ ",
"z./ v X O @ @ @ O O @ @ @ @ O p.7.O.] / r O @ @ @ @ O O O O @ @ O t.;.O.O.3.y 2 T @ + @ @ @ @ O @ @ @ @ O 2 X...] ) ] W 1 O @ @ ",
"_ ~ Y k c : X 1 t.c : O @ @ O h 0.O.R / T J H : + y y.c c y.f # @ 1 f O.] 5.z K J k y.w O @ , r y X @ @ O y ..Q 5.L ) N J 0 O @ ",
"_ I ~ Z | : > s S S d : @ @ @ ; a d y y.Z ~ I > 4 w ,.^ ^ ,.u.O @ O @ 8 w w c A P ! ;.f . > T S K 8 @ @ @ 1 q 8 e d A I A a X O ",
"_ ) ` ] ) y 8 K Y Y   2 @ @ @ @ + + X w W } Q = : t T J Y P h O @ @ @ O O . e T ) ` | s > : F E D t.> @ @ @ O O . y R ) / d : y ",
"z.` ` ] O...f.3 @ > @ @ @ @ @ @ @ @ @ @ > R ..#.5.p.@ > > > @ @ @ @ @ @ @ @ + y / ] O.7.t.> > > @ @ @ @ @ @ @ @ @ O : E ] O.c.} ",
"z.` ` q.9.q.[ : O @ @ @ @ @ @ @ @ @ @ @ > L q.q.r.d.+ @ @ @ @ @ @ @ @ @ @ @ @ @ 7 9.q.q.Q x 3 O @ @ @ @ @ @ @ @ @ @ > c ;.9.q.5.",
"z.) u.8 w w = 1 @ @ O @ @ @ O @ @ @ @ @ : = w 8 w = @ @ @ # O @ @ # @ @ @ @ @ @ @ t t r f y > @ @ O @ @ @ O @ @ @ @ > u d w w w ",
"z./ v X : O O @ @ O & : O O y : # @ @ @ @ O + : @ + @ @ + 1 3 O O 3 : O @ @ @ @ @ X : > X O @ O : y @ + : 3 # @ @ @ @ O X ; : X ",
"z./ c 1 R 3 @ > : 1 Q s @ = ~ r @ @ @ @ @ @ , L 8 @ @ @ : p.v > > k z > @ @ @ @ @ > R h @ @ > , h ` : , s y.@ @ @ @ @ @ @ v u.> ",
"z.) ] { ..s.: y ] O.O.{ W I I ! d X O @ O 2 s.R 0.s + @ g.7.O.W P I Z y.O O @ @ ; Q O.4.i.@ u...O.O.{ U Z B L > + @ @ o h 6.{ Q ",
"z.` ) ;.;.u O 8 ,.2.| 3.;.^ / / R p.h 8 y > r 2 y 1 @ @ R ;.{ ;.A ^ ^ W v i.= + : o.<.c : > ` ;.2.2.>.~ ~ ^ ) v s.8 . > f f.;.;.",
"z.) R d d > + 2 s d d d s d e L o.7.O.u.8 > e @ + @ @ @ e a = d d f z s.4.0.t X : d s = X > d d d d s w w x i.0.0.j.8 > y y h s ",
"z./ v . + @ @ @ + + + + + + 4 s 2.] ] ;.f X O @ @ @ @ @ O + O + + . = w ] ;.w + @ + + O @ @ + + + + + O X 1 8 h Q 2.Q @ O O + + ",
"z./ c O @ @ @ @ @ @ @ @ @ @ + x / ] ] / r + @ @ @ @ @ @ @ @ @ @ @ @ O 3 ] / w + @ @ @ @ @ @ @ @ @ @ @ @ @ @ @ O v ;.L @ @ @ @ @ ",
"z./ c O @ @ @ @ @ @ O O @ @ + x | ` ` / r + @ @ @ @ @ @ @ O O @ @ @ + > W / 8 + @ @ @ @ @ @ @ @ @ @ @ @ O = R R W } L @ @ @ @ @ ",
"z./ c O @ @ @ @ @ @ s w O @ + x ^ m I &.r . O @ @ @ @ @ O w d # @ # 3 i N Z 0 5 O @ @ @ @ @ @ @ @ @ @ @ O y ^ Z m / L + + @ @ @ ",
"z./ z + @ @ @ @ @ @ s w O @ + x ! I Z t.r 8 8 > @ @ @ @ O t s # @ + t &.U ! k y y @ @ @ @ @ @ @ @ @ @ @ O y ^ U U ! Q w t 1 @ @ ",
"z./ s @ @ @ @ @ @ @ O # @ @ + x 0.$.w > = f t > @ @ @ @ @ O O @ @ @ 1 h ..]  .;.` 1 @ @ @ @ @ @ @ @ @ @ @ ; t Q ] ] ] | <.t + @ ",
"_ U ! t.@ @ @ @ @ @ @ @ @ @ + z 0.O.R T T J K : @ @ O @ # @ > @ @ + w Q j.O.) ) m E = O @ @ % O O # @ @ O 3 Q ....] ` I ^ d + @ ",
"_ m ! G + O y k K K z 2 @ @ @ 1 = = = T Z ~ I : X y L H   L l @ @ @ : & : 1 v Z B I T w + > k G H z @ @ @ > 2 = 2 8 I m Z 9 . @ ",
"z.) ) R q @ , j S C i : @ @ @ @ O O + y y./ W q o 8 ,.A A S y.O @ @ @ O @ . s ;./ ` ;.d 4 ; Z S P 8 @ @ @ @ O O + > s ) | z & + ",
"z.) ] ) 4.r : 8 R L 1 + @ @ @ @ @ @ @ . t W ` 3.h f L L L L h O @ @ @ @ @ O r L y.] ..p.= 1 t.Q d X @ @ @ @ @ @ @ + : ) W ;.j.= ",
"z.` ] 9.q.q.y.d @ @ @ @ @ @ @ @ @ @ @ O t e O.%.q.s.+ @ @ @ @ @ @ @ @ @ @ @ @ O > Q 9.q.Q z 3 @ @ @ @ @ @ @ @ @ @ O y v u.7.#...",
"z.) R x x i.y ; + + O + + + + @ @ @ @ + r d } i.u.t O @ + + O @ @ O + O @ @ @ @ > t.z i.d : > @ @ + O + + O @ @ @ @ > w s i.] ] ",
"z.) R h s 8 1 1 v x z x x x v 3 + @ @ @ 3 1 y = y 3 @ @ f c w + X t c d @ @ @ @ : Q x r y @ @ + 3 v z z v t + @ @ @ > w X e ;.] ",
"z.` ) / ;.8 + 8 <./ | / / | ;.s : O @ @ + > y 3 = > @ @ R >.R 2 y R ,.R # # @ @ : W >.c > @ @ > h ;./ | ;.R = @ O @ O + = c | ] ",
"z.) ] ..O.Q : = W O.O.{ E I U Z v > : : @ y o.s.Q 8 O @ s.9.O.c I ! B c > > @ @ : { O.O.f @ + g 7.#...I I N H 3 : : : @ R 5.O.Q ",
"z.` ]  .i.1 @ @ : Q / r t.U E ~ ` W W / w 3 ` t.u @ @ O i.;.x > E ;.a > L u.1 + : Q L d O @ + h ;.] ] Y W ~ ] W { ) L O v ] 2 z ",
"z./ y.: : @ @ @ @ 1 & > 2 t w R >.5.5.<.d $ * : , @ @ @ : = ; @ 2 3 = i.0.e.h X > = ; ; @ @ @ : & & 3 8 t x ;.5.6.>.Q @ : = @ 3 ",
"z./ v X @ @ @ @ @ O O O > r t r f c v d = O O @ @ @ @ @ @ O @ @ O O @ w v i.w O @ O @ @ @ @ @ @ O O O 8 r r r h c b w @ O O @ O ",
"z./ c O @ @ @ @ @ @ @ @ @ + O . : d d @ + @ @ @ @ @ @ @ @ @ @ @ @ @ @ + X q = # @ @ @ @ @ @ @ @ @ @ @ O O + X . 8 y . @ @ @ @ @ ",
"z./ c O > @ @ @ @ @ > @ @ @ @ @ > : , > @ @ @ @ @ @ @ @ @ @ > @ @ @ @ % : 1 > @ @ @ @ @ @ @ @ @ @ > @ @ @ @ > ; , > > @ @ @ @ @ ",
"z./ z : W 1 O @ @ O H d + @ O s E M P E w + @ @ @ @ @ @ + s t.O @ O y H I Z 0 O @ @ @ @ @ @ @ + w R > @ O = T P n T i.@ @ @ @ @ ",
"z./ z % 8 > @ # + + y = @ @ O t Z N m &.r 4 + @ @ @ @ @ + 1 = @ @ + > 9 Z Z 6 5 + + + @ @ @ O X : 8 @ @ O y ^ N I ! R + + @ @ @ ",
"z./ u.2 : > O , w w @ + @ @ O b 3.O.} } u.8 r : @ @ @ # y 8 2 @ @ y u w ] ;.d y w w w 3 @ @ u t 2 X @ @ O = ..]  ./ R 8 w 1 @ @ ",
"_ U ! H d - o t ;.;.u @ @ @ + x O.O.L T / ^ ^ 1 O @ @ , R <.y.O O y.<...f.j.W ~ Z ^ <.d X @ w f 8 > @ @ O = ....l.R ) Z S s + @ ",
"_ m ~   r 3 y ~ I U W e + @ O x t e @ t.Z ~ I 3 + O & Y U / c O O i.<.L @ + s A I I / d + > L Y E L @ @ O y / ;.y 8 ~ M Z 9 O @ ",
"z.` ] W R h c Z I ! A u O @ @ : > O @ : 8 L ] L t.s.K m I Z c O @ 1 = 3 @ @ > d ;.] ] T w w A ! V T @ @ @ > = = > > y ) d = x u ",
"z.` ` ] O.R z L R R e 1 @ @ @ @ @ @ @ + y t ] O...| ;./ / ;.i.O @ # O O @ @ O : d W ..l.x w x ` s w @ @ @ @ O O @ + 3 L R i.k.z ",
"z.` ) #.%.q.f.8 3 1 + @ @ @ @ @ @ @ @ O s x x.v.c.{ l i.i.u.d $ @ @ @ @ @ @ @ O @ h.x.c.2.e > = @ + @ @ @ @ @ @ @ O y z c 7.7.5.",
"z.` ` Q W R R : O @ @ @ @ @ @ @ @ @ @ @ # : R } ;.z X O O O @ @ @ @ @ @ @ @ @ @ > z 3 t y.8 : O @ @ @ @ @ @ @ @ @ @ @ > t z } ] ",
"z./ c O > z w f X O O O O + + + O @ @ @ @ @ : z L t O @ O + + O O O + O @ @ @ @ @ @ X 2 w Q : X O O O O O O O @ @ @ @ @ @ d | ` ",
"z.) R s d / 8 8 v z z z z z x c w 8 > @ @ : d L T r + @ d v z z v s z r @ @ @ @ > s x R v w v z z z z z z v s > @ @ @ @ y i.} ) ",
"z.` } ;.0.0.7 = <.0.0.0.;.A A S x d > O O : h ..e.s + @ Q 0.0.;.A A A W @ + @ @ : o.0.1.y.+ W >.0.0.0.^ A A / > X O # @ i.O.O. .",
"z.) W s.c i.= 2 Q R R f.K J K ~ z h - : > 3 f.L u.w O @ v Q f.R J H E L y y : O : u.R u.d @ i.R R R f.K K T R y y 3 : @ x Q R L ",
"z./ c O @ @ @ @ @ @ @ @ @ @ O x | %.O.| e + @ @ @ @ @ @ @ @ @ @ @ + w / 4.0.h + @ @ @ @ @ @ @ @ @ @ @ @ O = ) O.7.} L @ @ @ @ @ ",
"z./ c O @ @ @ @ @ @ @ @ @ @ + x 3.] 3.<.d + @ @ @ @ @ @ @ @ @ @ @ @ > y Q >.w + @ @ @ @ @ @ @ @ @ @ @ @ + y ;.2.2.>.T @ @ @ @ @ ",
"z./ c O @ @ @ @ @ @ @ @ @ @ + x ;.Q w w 2 @ @ @ @ @ @ @ @ @ @ @ @ @ O O d k y O @ @ @ @ @ @ @ @ @ @ @ @ @ 1 t w w t w @ @ @ @ @ ",
"z./ c O @ @ @ @ @ @ @ @ @ @ + x ;.R 2 : O @ @ @ @ @ @ @ @ @ @ @ @ @ > t R R w O @ @ @ @ @ @ @ @ @ @ @ @ @ > 3 1 3 > X @ @ @ @ @ ",
"z./ c O @ @ @ @ @ @ @ @ @ @ + x / m ~ ^ 8 O @ @ @ @ @ @ @ @ @ @ @ O y ) ! A e + @ @ @ @ @ @ @ @ @ @ @ @ O = / ! Z x @ @ @ @ @ @ ",
"z./ c O @ @ @ @ @ @ @ @ @ @ + x Z m m ^ r . @ @ @ @ @ @ @ @ @ @ @ + w ^ I Z 9 + O @ @ @ @ @ @ @ @ @ @ @ O = ~ B I I i.O @ @ @ @ ",
"z./ v . + @ @ @ + + @ @ @ @ + d 0.O./  .R w X @ @ @ + + + + O @ @ + 8 3.] / y : d O + O @ @ O + O @ @ @ O y 3.] ) } ` v > + @ @ ",
"z./ J e r > O @ 8 8 > @ @ @ O f Q 4.i.) / Y a : O 1 w w w w y @ @ O y j.3.0.s s B e d 2 O > 2 t y # @ @ O y s.o.j.R } Z j = % @ ",
"_ m I Z ( 1 O 8 ^ / y @ @ @ @ w w z 8 ) B ! Z < . w <./ / <.y.O @ O 8 8 L c L Z m Z *.h X @ L *.u.@ @ @ O = 8 c 8 i.! m V 9 + @ ",
"z.U ` ] ` : = F Z Z   , @ @ @ @ @ @ O v ^ ) Q > X w / I I Z c O @ @ @ @ @ X s ^ ) ` | f X : P ! N t.@ @ @ @ @ @ + w ^ ) / s + @ "
};
