/* XPM */
static char *_60bb20fb23a4330c362c22b0c12372794CviSjZhP8eeuat[] = {
/* columns rows colors chars-per-pixel */
"64 64 125 2 ",
"   c #351303",
".  c #3B1501",
"X  c #3F1806",
"o  c #451C07",
"O  c #441B08",
"+  c #4C200B",
"@  c #5F2605",
"#  c #52220C",
"$  c #6F2D07",
"%  c #662A09",
"&  c #6C2D0B",
"*  c #72320F",
"=  c #7A350F",
"-  c #8B3A03",
";  c #9D3500",
":  c #933C02",
">  c #9B3E03",
",  c #A33501",
"<  c #A13D03",
"1  c #A93905",
"2  c #E80400",
"3  c #EA0902",
"4  c #F40102",
"5  c #F40906",
"6  c #F90B08",
"7  c #E41608",
"8  c #ED140A",
"9  c #E41B0B",
"0  c #EA200F",
"q  c #964105",
"w  c #9D4105",
"e  c #9C4208",
"r  c #9B490A",
"t  c #974A12",
"y  c #9F4A11",
"u  c #A14205",
"i  c #A44409",
"p  c #A44B0C",
"a  c #AC490B",
"s  c #A24C12",
"d  c #C65204",
"f  c #CE5504",
"g  c #D45703",
"h  c #D65A06",
"j  c #DC5C02",
"k  c #D15708",
"l  c #D55A09",
"z  c #DB5D08",
"x  c #E15E01",
"c  c #DA6613",
"v  c #D26318",
"b  c #E46104",
"n  c #FD750F",
"m  c #E06810",
"M  c #E56A1B",
"N  c #EB6E1B",
"B  c #F86F17",
"V  c #EA7117",
"C  c #E6711D",
"Z  c #ED721C",
"A  c #F37316",
"S  c #FC7615",
"D  c #F67816",
"F  c #FE7916",
"G  c #F27418",
"H  c #F47418",
"J  c #F67519",
"K  c #F1731D",
"L  c #F0731E",
"P  c #F7771C",
"I  c #F97618",
"U  c #F9771A",
"Y  c #FC7719",
"T  c #F57B1D",
"R  c #FA7818",
"E  c #FD7818",
"W  c #FF7A18",
"Q  c #FE7C1A",
"!  c #F9791C",
"~  c #FB7A1C",
"^  c #FC791C",
"/  c #E37021",
"(  c #ED7320",
")  c #E97422",
"_  c #F07521",
"`  c #F67D23",
"'  c #F87D21",
"]  c #F47F29",
"[  c #F17F2E",
"{  c #E37932",
"}  c #EC7E30",
"|  c #FD821C",
" . c #EF802F",
".. c #FA8229",
"X. c #FB862F",
"o. c #FC852F",
"O. c #F28333",
"+. c #F48230",
"@. c #F18134",
"#. c #F78734",
"$. c #F18836",
"%. c #FF8A31",
"&. c #FF8C30",
"*. c #F1AC36",
"=. c #F6BB34",
"-. c #F5B638",
";. c #F2BC3B",
":. c #B5E61D",
">. c #F9C336",
",. c #F7CC35",
"<. c #F8CE37",
"1. c #F1C038",
"2. c #F8C63A",
"3. c #FAD437",
"4. c #E9B27E",
"5. c #E5B788",
"6. c #E6BA8B",
"7. c #E6BD91",
"8. c #EABD91",
"9. c #E4C29C",
"0. c #EBC49D",
"q. c #EAC7A1",
"w. c #EAC9A5",
"e. c #E9CDAB",
"r. c #EBD2B2",
/* pixels */
":.:.:.:.:.:.:.:.:.:.:.:.:.:.:.:.:.:.:.:.:.:.:.:.:.:.:.:.:.:.:.:.:.:.:.:.:.:.:.:.:.:.:.:.:.:.:.:.:.:.:.:.:.:.:.:.:.:.:.:.:.:.:.:.",
":.:.:.:.:.:.:.:.:.:.:.:.:.:.:.:.:.:.:.:.:.:.:.:.:.:.:.:.:.:.:.:.:.:.:.:.:.:.:.:.:.:.:.:.:.:.:.:.:.:.:.:.:.:.:.:.:.:.:.:.:.:.:.:.",
":.:.:.:.:.:.:.:.:.:.:.:.:.:.:.:.:.:.:.:.:.:.:.:.:.:.:.:.:.:.:.:.:.:.:.:.:.:.:.:.:.:.:.:.:.:.:.:.:.:.:.:.:.:.:.:.:.:.:.:.:.:.:.:.",
":.:.:.:.:.:.:.:.:.:.:.:.:.:.:.:.:.:.:.:.:.:.:.:.:.:.:.:.:.:.:.:.:.:.:.:.:.:.:.:.:.:.:.:.:.:.:.:.:.:.:.:.:.:.:.:.:.:.:.:.:.:.:.:.",
":.:.:.:.:.:.:.:.:.:.:.:.:.:.:.:.:.:.:.:.:.:.:.:.:.:.:.:.:.:.:.:.:.:.:.:.:.:.:.:.:.:.:.:.:.:.:.:.:.:.:.:.:.:.:.:.:.:.:.:.:.:.:.:.",
":.:.:.:.:.:.:.:.:.:.:.:.:.:.:.:.:.:.:.:.:.:.:.:.:.:.:.:.:.:.:.:.:.:.:.:.:.:.:.:.:.:.:.:.:.:.:.:.:.:.:.:.:.:.:.:.:.:.:.:.:.:.:.:.",
":.:.:.:.:.:.:.:.:.:.:.:.:.:.:.:.:.:.:.:.:.:.:.:.:.:.:.:.:.:.:.:.:.:.:.:.:.:.:.:.:.:.:.:.:.:.:.:.:.:.:.:.:.:.:.:.:.:.:.:.:.:.:.:.",
":.:.:.:.:.:.:.:.:.:.:.:.:.:.:.:.:.:.:.:.:.:.:.:.:.:.:.:.:.:.:.:.:.:.:.:.:.:.:.:.:.:.:.:.:.:.:.:.:.:.:.:.:.:.:.:.:.:.:.:.:.:.:.:.",
":.:.:.:.:.:.:.:.:.:.:.:.:.:.:.:.:.:.:.:.:.:.:.:.:.:.:.:.:.:.:.:.:.:.:.:.:.:.:.:.:.:.:.:.:.:.:.:.:.:.:.:.:.:.:.:.:.:.:.:.:.:.:.:.",
":.:.:.:.:.:.:.:.:.:.:.:.:.:.:.:.:.:.:.:.:.:.:.:.:.:.:.:.:.:.:.:.:.:.:.:.:.:.:.:.:.:.:.:.:.:.:.:.:.:.:.:.:.:.:.:.:.:.:.:.:.:.:.:.",
":.:.:.:.:.:.:.:.:.:.:.:.:.:.:.:.:.:.:.:.:.:.:.:.:.:.:.:.:.:.:.:.:.:.:.:.:.:.:.:.:.:.:.:.:.:.:.:.:.:.:.:.:.:.:.:.:.:.:.:.:.:.:.:.",
":.:.:.:.:.:.:.:.:.:.:.:.:.:.:.:.:.:.:.:.:.:.:.:.:.:.:.:.:.:.:.:.:.:.:.:.:.:.:.:.:.:.:.:.:.:.:.:.:.:.:.:.:.:.:.:.:.:.:.:.:.:.:.:.",
":.:.:.:.:.:.:.:.:.:.:.:.:.:.:.:.:.:.E F F F F F F F F F F F F F F F F F :.:.:.:.:.:.:.:.:.:.:.:.:.:.:.:.:.:.:.:.:.:.:.:.:.:.:.:.",
":.:.:.:.:.:.:.:.:.:.:.:.:.:.:.:.:.F R U K K K K K K K K K K K K K K R F F :.:.:.:.:.:.:.:.:.:.:.:.:.:.:.:.:.:.:.:.:.:.:.:.:.:.:.",
":.:.:.:.:.:.:.:.:.:.:.:.:.:.:.:.:.:.F U i > > > > > > > > > > > > i H F :.:.:.:.:.:.:.:.:.:.:.:.:.:.:.:.:.:.:.:.:.:.:.:.:.:.:.:.",
":.:.:.:.:.:.:.:.:.:.:.:.:.:.:.F F E U K u : w q q q q q q q > > : w Z R F :.:.:.:.:.:.:.:.:.:.:.:.:.:.:.:.:.:.:.:.:.:.:.:.:.:.:.",
":.:.:.:.:.:.:.:.:.:.:.:.:.:.:.F F H i w : w } +.O.O.O.O.@.[ K Z u : w a U F :.:.:.:.:.:.:.:.:.:.:.:.:.:.:.:.:.:.:.:.:.:.:.:.:.:.",
":.:.:.:.:.:.:.:.:.:.:.:.:.:.:.F F H > : w a o.%.%.%.%.%.%.o.E ~ a w : u U F :.:.:.:.:.:.:.:.:.:.:.:.:.:.:.:.:.:.:.:.:.:.:.:.:.:.",
":.:.:.:.:.:.:.:.:.:.:.:.:.:.:.F F K > > } X.~ F E E E E E E F F F Z > u U F F :.:.:.:.:.:.:.:.:.:.:.:.:.:.:.:.:.:.:.:.:.:.:.:.:.",
":.:.:.:.:.:.:.:.:.:.:.:.:.:.:.F F K > > O.%.R F F F F F F F F F E H > u U F F :.:.:.:.:.:.:.:.:.:.:.:.:.:.:.:.:.:.:.:.:.:.:.:.:.",
":.:.:.:.:.:.:.:.:.:.:.:.:.:.:.F F K > > +.&.R F F F F F F F F E E H > u U F F :.:.:.:.:.:.:.:.:.:.:.:.:.:.:.:.:.:.:.:.:.:.:.:.:.",
":.:.:.:.:.:.:.:.:.:.:.:.:.:.:.F F G w > { @.R F F F F F F U Z Z ^ H > u U F F :.:.:.:.:.:.:.:.:.:.:.:.:.:.:.:.:.:.:.:.:.:.:.:.:.",
":.:.:.:.:.:.:.:.:.:.:.:.:.:.:.F F H w : $ = _ F F F F F F Z * & Z U > u U F F :.:.:.:.:.:.:.:.:.:.:.:.:.:.:.:.:.:.:.:.:.:.:.:.:.",
":.:.:.:.:.:.:.:.:.:.:.:.:.:.:.F F A q : @ & Z F F F F F F Z % @ V U > u U F F :.:.:.:.:.:.:.:.:.:.:.:.:.:.:.:.:.:.:.:.:.:.:.:.:.",
":.:.:.:.:.:.:.:.:.:.:.:.:.:.:.F E H > - . O Z F F F F F F C X   C Y > u U F F :.:.:.:.:.:.:.:.:.:.:.:.:.:.:.:.:.:.:.:.:.:.:.:.:.",
":.:.:.:.:.:.:.:.:.:.:.:.:.:.:.F H N i q o # ( F F F F F F Z + O / U > u U F F :.:.:.:.:.:.:.:.:.:.:.:.:.:.:.:.:.:.:.:.:.:.:.:.:.",
":.:.:.:.:.:.:.:.:.:.:.:.:.:.F H i i  .+.) Z H F F F F F R P Z Z E H > u U F F :.:.:.:.:.:.:.:.:.:.:.:.:.:.:.:.:.:.:.:.:.:.:.:.:.",
":.:.:.:.:.:.:.:.:.:.:.:.:.:.F H q q #.%.Q F U E F F F F R R F E E K > u U F F :.:.:.:.:.:.:.:.:.:.:.:.:.:.:.:.:.:.:.:.:.:.:.:.:.",
":.:.:.:.:.:.:.:.:.:.:.:.:.:.F H w w #.%.E F F F F F F F F F b j b j > u U F F :.:.:.:.:.:.:.:.:.:.:.:.:.:.:.:.:.:.:.:.:.:.:.:.:.",
":.:.:.:.:.:.:.:.:.:.:.:.:.:.F H w w +.X.R U U U U U U U F U j j j k > u U F F :.:.:.:.:.:.:.:.:.:.:.:.:.:.:.:.:.:.:.:.:.:.:.:.:.",
":.:.:.:.:.:.:.:.:.:.:.:.:.:.F H w > z b j j x j j j j j j j j j g d : u U F F :.:.:.:.:.:.:.:.:.:.:.:.:.:.:.:.:.:.:.:.:.:.:.:.:.",
":.:.:.:.:.:.:.:.:.:.:.:.:.:.F H i > h j j j j j j j j j j j j j f d > u U F F :.:.:.:.:.:.:.:.:.:.:.:.:.:.:.:.:.:.:.:.:.:.:.:.:.",
":.:.:.:.:.:.:.:.:.:.:.:.:.:.:.U G N u u h x j j j j j j j j f f f d > u E F F F :.:.F F F F :.:.:.:.:.:.:.:.:.:.:.:.:.:.:.:.:.:.",
":.:.:.:.:.:.:.:.:.:.:.:.:.:.:.F ~ Z > : k h j j x x j j x j f f f d : u K H H H F F H G H H F F F :.:.:.:.:.:.:.:.:.:.:.:.:.:.:.",
":.:.:.:.:.:.:.:.:.:.:.:.:.:.F H a > : : > u h j S F S S F F U H j k > : > > > a ^ ~ p q w i H E F :.:.:.:.:.:.:.:.:.:.:.:.:.:.:.",
":.:.:.:.:.:.:.:.:.:.:.:.:.:.F H w : w u w u z b U E ....E F F F b j u > > > : w Z N 1 ; : > N H E :.:.:.:.:.:.:.:.:.:.:.:.:.:.:.",
":.:.:.:.:.:.:.:.:.:.:.:.:.:.F H w > h j j j H E S ' 0.0.] n F F F U j j j h < : q > 3 3 > > > i P F :.:.:.:.:.:.:.:.:.:.:.:.:.:.",
":.:.:.:.:.:.:.:.:.:.:.:.:.:.F H w > j x j x U E R +.w.w.$.~ U F F F x j j h < : ; , 7 7 , , : w P F :.:.:.:.:.:.:.:.:.:.:.:.:.:.",
":.:.:.:.:.:.:.:.:.:.:.:.:.:.F H w > j x x b S ~ 4.7.w.e.w.8.` F F F j j x j q , 3 8 *.*.5 2 ; e P F :.:.:.:.:.:.:.:.:.:.:.:.:.:.",
":.:.:.:.:.:.:.:.:.:.:.:.:.:.F H u > k h h l S T 6.9.w.e.r.q.` F F U x j h k w , 4 6 >.>.0 9 ; e P F :.:.:.:.:.:.:.:.:.:.:.:.:.:.",
":.:.:.:.:.:.:.:.:.:.:.:.:.:.F H w : > > > i H T 5.9.w.e.e.0.` F F U x g > > : , 4 6 =.3.2.;.r > P F :.:.:.:.:.:.:.:.:.:.:.:.:.:.",
":.:.:.:.:.:.:.:.:.:.:.:.:.:.F H i > w q : e A T 5.9.w.e.e.0.` F F U b h w w q 1 3 8 -.<.,.1.r > P F :.:.:.:.:.:.:.:.:.:.:.:.:.:.",
":.:.:.:.:.:.:.:.:.:.:.:.:.:.:.F K G H Z u w A T 5.9.w.e.e.0.` F F Y U U G G A H B H | T p r : w P F :.:.:.:.:.:.:.:.:.:.:.:.:.:.",
":.:.:.:.:.:.:.:.:.:.:.:.:.:.:.:.F F E U u w A ~ 5.9.w.e.e.0.` S F F F F F F U F R D K M > : w a P F :.:.:.:.:.:.:.:.:.:.:.:.:.:.",
":.:.:.:.:.:.:.:.:.:.:.:.:.:.:.:.:.:.F H u w H T 5.9.e.e.r.0.c x U E E U x x x x x z i q : > Z ~ F :.:.:.:.:.:.:.:.:.:.:.:.:.:.:.",
":.:.:.:.:.:.:.:.:.:.:.:.:.:.:.:.:.:.F H u w H ~ 4.7.0.9.q.6.v h A F F A l h h h h l > : > i H E R :.:.:.:.:.:.:.:.:.:.:.:.:.:.:.",
":.:.:.:.:.:.:.:.:.:.:.:.:.:.:.:.:.:.F H u > z b m c s y t r w u z b b j u w > > > > : w Z H E F E :.:.:.:.:.:.:.:.:.:.:.:.:.:.:.",
":.:.:.:.:.:.:.:.:.:.:.:.:.:.:.:.:.:.F H i > k h g f > : > > : : f h h f > : w w w w w a ~ E F :.:.:.:.:.:.:.:.:.:.:.:.:.:.:.:.:.",
":.:.:.:.:.:.:.:.:.:.:.:.:.:.:.:.:.:.F H u : > > > > : > Z K u : > > > > : w ( ~ P P P P F R E :.:.:.:.:.:.:.:.:.:.:.:.:.:.:.:.:.",
":.:.:.:.:.:.:.:.:.:.:.:.:.:.:.:.:.:.F H i > q q q > > e G U i > w q q q > i H F F F F F :.:.:.:.:.:.:.:.:.:.:.:.:.:.:.:.:.:.:.:.",
":.:.:.:.:.:.:.:.:.:.:.:.:.:.:.:.:.F R R K A A A A A K K U F G A A A A K K K U :.:.:.:.:.:.:.:.:.:.:.:.:.:.:.:.:.:.:.:.:.:.:.:.:.",
":.:.:.:.:.:.:.:.:.:.:.:.:.:.:.:.:.:.E F F E E E E E F F E E F E E E E E F F F :.:.:.:.:.:.:.:.:.:.:.:.:.:.:.:.:.:.:.:.:.:.:.:.:.",
":.:.:.:.:.:.:.:.:.:.:.:.:.:.:.:.:.:.:.:.:.:.:.:.:.:.:.:.:.:.:.:.:.:.:.:.:.:.:.:.:.:.:.:.:.:.:.:.:.:.:.:.:.:.:.:.:.:.:.:.:.:.:.:.",
":.:.:.:.:.:.:.:.:.:.:.:.:.:.:.:.:.:.:.:.:.:.:.:.:.:.:.:.:.:.:.:.:.:.:.:.:.:.:.:.:.:.:.:.:.:.:.:.:.:.:.:.:.:.:.:.:.:.:.:.:.:.:.:.",
":.:.:.:.:.:.:.:.:.:.:.:.:.:.:.:.:.:.:.:.:.:.:.:.:.:.:.:.:.:.:.:.:.:.:.:.:.:.:.:.:.:.:.:.:.:.:.:.:.:.:.:.:.:.:.:.:.:.:.:.:.:.:.:.",
":.:.:.:.:.:.:.:.:.:.:.:.:.:.:.:.:.:.:.:.:.:.:.:.:.:.:.:.:.:.:.:.:.:.:.:.:.:.:.:.:.:.:.:.:.:.:.:.:.:.:.:.:.:.:.:.:.:.:.:.:.:.:.:.",
":.:.:.:.:.:.:.:.:.:.:.:.:.:.:.:.:.:.:.:.:.:.:.:.:.:.:.:.:.:.:.:.:.:.:.:.:.:.:.:.:.:.:.:.:.:.:.:.:.:.:.:.:.:.:.:.:.:.:.:.:.:.:.:.",
":.:.:.:.:.:.:.:.:.:.:.:.:.:.:.:.:.:.:.:.:.:.:.:.:.:.:.:.:.:.:.:.:.:.:.:.:.:.:.:.:.:.:.:.:.:.:.:.:.:.:.:.:.:.:.:.:.:.:.:.:.:.:.:.",
":.:.:.:.:.:.:.:.:.:.:.:.:.:.:.:.:.:.:.:.:.:.:.:.:.:.:.:.:.:.:.:.:.:.:.:.:.:.:.:.:.:.:.:.:.:.:.:.:.:.:.:.:.:.:.:.:.:.:.:.:.:.:.:.",
":.:.:.:.:.:.:.:.:.:.:.:.:.:.:.:.:.:.:.:.:.:.:.:.:.:.:.:.:.:.:.:.:.:.:.:.:.:.:.:.:.:.:.:.:.:.:.:.:.:.:.:.:.:.:.:.:.:.:.:.:.:.:.:.",
":.:.:.:.:.:.:.:.:.:.:.:.:.:.:.:.:.:.:.:.:.:.:.:.:.:.:.:.:.:.:.:.:.:.:.:.:.:.:.:.:.:.:.:.:.:.:.:.:.:.:.:.:.:.:.:.:.:.:.:.:.:.:.:.",
":.:.:.:.:.:.:.:.:.:.:.:.:.:.:.:.:.:.:.:.:.:.:.:.:.:.:.:.:.:.:.:.:.:.:.:.:.:.:.:.:.:.:.:.:.:.:.:.:.:.:.:.:.:.:.:.:.:.:.:.:.:.:.:.",
":.:.:.:.:.:.:.:.:.:.:.:.:.:.:.:.:.:.:.:.:.:.:.:.:.:.:.:.:.:.:.:.:.:.:.:.:.:.:.:.:.:.:.:.:.:.:.:.:.:.:.:.:.:.:.:.:.:.:.:.:.:.:.:.",
":.:.:.:.:.:.:.:.:.:.:.:.:.:.:.:.:.:.:.:.:.:.:.:.:.:.:.:.:.:.:.:.:.:.:.:.:.:.:.:.:.:.:.:.:.:.:.:.:.:.:.:.:.:.:.:.:.:.:.:.:.:.:.:."
};
