/* XPM */
static char *_ba1d97f738d4a07fa4500ead8f1f73bjpew5TVy0RbBkXbG[] = {
/* columns rows colors chars-per-pixel */
"64 64 247 2 ",
"   c #020202",
".  c #030D06",
"X  c #0A0804",
"o  c #180905",
"O  c #03130A",
"+  c #0A160A",
"@  c #151508",
"#  c #131B0C",
"$  c #0A1811",
"%  c #2E1009",
"&  c #2B1408",
"*  c #381608",
"=  c #1B2208",
"-  c #1E3307",
";  c #032413",
":  c #022C16",
">  c #1A2914",
",  c #02341B",
"<  c #07391C",
"1  c #183718",
"2  c #27270C",
"3  c #293707",
"4  c #33330E",
"5  c #272A13",
"6  c #253718",
"7  c #38391A",
"8  c #013B22",
"9  c #491C05",
"0  c #572709",
"q  c #4C2A12",
"w  c #482814",
"e  c #5A3314",
"r  c #642F0B",
"t  c #6B360C",
"y  c #773D0E",
"u  c #693A15",
"i  c #793D13",
"p  c #1D4019",
"a  c #384B0B",
"s  c #3B510B",
"d  c #26491C",
"f  c #3D4816",
"g  c #2E521E",
"h  c #014423",
"j  c #064927",
"k  c #024C26",
"l  c #02562B",
"z  c #05582B",
"x  c #185025",
"c  c #2E5023",
"v  c #385523",
"b  c #026532",
"n  c #026C34",
"m  c #006838",
"M  c #126D31",
"N  c #027136",
"B  c #01743A",
"V  c #097638",
"C  c #017C3C",
"Z  c #396629",
"A  c #2A7532",
"S  c #495714",
"D  c #475916",
"F  c #78410E",
"G  c #6F421E",
"H  c #774317",
"J  c #596A0C",
"K  c #4A6215",
"L  c #546A16",
"P  c #5A7515",
"I  c #686C10",
"U  c #637B19",
"Y  c #464D21",
"T  c #4A5423",
"R  c #545924",
"E  c #5A662A",
"W  c #48752F",
"Q  c #4B742E",
"!  c #677628",
"~  c #6E742E",
"^  c #75792E",
"/  c #80440F",
"(  c #834313",
")  c #894A15",
"_  c #944E17",
"`  c #95531A",
"'  c #9B551A",
"]  c #A55A1A",
"[  c #B15F18",
"{  c #AF631C",
"}  c #915726",
"|  c #A85E22",
" . c #AD6122",
".. c #B46525",
"X. c #B96826",
"o. c #BC6A29",
"O. c #D2711F",
"+. c #C36D26",
"@. c #CB7126",
"#. c #CA7129",
"$. c #D57525",
"%. c #E57D24",
"&. c #03833E",
"*. c #09853E",
"=. c #16893D",
"-. c #2F8636",
";. c #588418",
":. c #698717",
">. c #768C1A",
",. c #6E9114",
"<. c #789719",
"1. c #7CA318",
"2. c #57892A",
"3. c #4A8333",
"4. c #558835",
"5. c #5A963B",
"6. c #6F8E31",
"7. c #5FA43F",
"8. c #66A53E",
"9. c #75B132",
"0. c #018442",
"q. c #018B42",
"w. c #0C8B41",
"e. c #128E41",
"r. c #029345",
"t. c #0D9443",
"y. c #049A48",
"u. c #129442",
"i. c #199A43",
"p. c #249D42",
"a. c #2B9C41",
"s. c #309B41",
"d. c #1DA448",
"f. c #2AA445",
"g. c #33A443",
"h. c #3AA744",
"j. c #36B34A",
"k. c #599442",
"l. c #44A944",
"z. c #4AAE44",
"x. c #56A946",
"c. c #4EB145",
"v. c #4BB848",
"b. c #53B244",
"n. c #5BB544",
"m. c #5EBA45",
"M. c #57BC48",
"N. c #66AB41",
"B. c #67B645",
"V. c #64BA45",
"C. c #6DBD44",
"Z. c #71BE44",
"A. c #79BD44",
"S. c #6DC146",
"D. c #67C54A",
"F. c #74C145",
"G. c #7AC345",
"H. c #76C748",
"J. c #76C949",
"K. c #7ACC49",
"L. c #7AD24C",
"P. c #859C11",
"I. c #87A81A",
"U. c #8EB517",
"Y. c #94BC1B",
"T. c #8D9B2E",
"R. c #858D37",
"E. c #889937",
"W. c #8FAE2D",
"Q. c #93AD2A",
"!. c #99B828",
"~. c #89A43B",
"^. c #98A83D",
"/. c #A9AE3C",
"(. c #ED8324",
"). c #F58624",
"_. c #F88826",
"`. c #9AC518",
"'. c #9EC91B",
"]. c #A2CC1C",
"[. c #A5D41B",
"{. c #ACDB1B",
"}. c #B3DF1C",
"|. c #AEE21C",
" X c #B7E51A",
".X c #B5E61C",
"XX c #B6E91C",
"oX c #BAEC1D",
"OX c #BDF21D",
"+X c #9BC426",
"@X c #8EC832",
"#X c #A5CA27",
"$X c #AAD522",
"%X c #B4DB27",
"&X c #ABD036",
"*X c #B4DA37",
"=X c #A4E022",
"-X c #B6E622",
";X c #B8E626",
":X c #BAEB22",
">X c #B7E628",
",X c #BBEA2A",
"<X c #BEF121",
"1X c #BDE835",
"2X c #C1EE1A",
"3X c #C3F61E",
"4X c #C2F522",
"5X c #C6F927",
"6X c #C1EF37",
"7X c #C3F133",
"8X c #C6F23D",
"9X c #8FB343",
"0X c #A6B844",
"qX c #B3B542",
"wX c #83C545",
"eX c #8BC646",
"rX c #87CA47",
"tX c #8DCC49",
"yX c #93CA46",
"uX c #9CCC47",
"iX c #98CA48",
"pX c #8AD54C",
"aX c #99D54B",
"sX c #A7CC47",
"dX c #B7CA47",
"fX c #ACD349",
"gX c #A8D74A",
"hX c #B6D647",
"jX c #B3D449",
"kX c #BCD649",
"lX c #BBDC4A",
"zX c #B5D951",
"xX c #99E24F",
"cX c #B6E24F",
"vX c #C6CA49",
"bX c #C3DA4A",
"nX c #C7D849",
"mX c #C9DC4A",
"MX c #D1DA4C",
"NX c #C9E74A",
"BX c #D6E64D",
"VX c #CDF745",
"CX c #CBF44D",
"ZX c #D4ED52",
"AX c #E1E54C",
"SX c #E3EB51",
"DX c #E7F252",
/* pixels */
".X.X.X.X.X.X.X.X.X.X.X.X.X.X.X.X.X-X.X-X.X.X.X.X.X.X.XXX:X4X<X:XoXoXoXoXXXXX:X-X.X.X>X1XNX1X;X;X;X-X,X;X-X.X-X.X.X.X.X.X.X.X.X.X",
".X.X.X.X.X.X.X.X.X.X.X.X.X.X.X.X-X-X.X.X.X.X.X.X.X.XOX:XU s s P `.`.`.`.`.-X5XoX.X.X.X.X.X.X.X.X.X.X.X.X.X.X.X.X.X.X.X.X.X.X.X.X",
"-X.X.X.X.X.X.X.X.X.X.X.X.X.X.X-X.X.X.X.X.X.X.X.X.X{.[.T.R 7 7 R Q.!.Q.Q.Q.E.E.'.XXXX.X.X.X.X.X.X.X.X.X.X.X.X.X.X.X.X.X.X.X.X.X.X",
";X.X.X.X.X.X.X.X.X.X.X.X.X.X.X-X.X.X.X.X.X.X.X.X-X'.,.7 vXDXSXbXnXAXnXbXSXE + L %X:XXX.X.X.X.X.X.X.X.X.X.X.X.X.X.X.X.X.X.X.X.X.X",
".X.X.X.X.X.X.X.X.X.X.X.X.X.X.X.X.X.X.X.X.XXXOX2X X%X#X^.bXNXmXbXbXmXbXbXBX~.4.^.Q.U.-XXX.X.X.X.X.X.X.X.X.X.X.X.X.X.X.X.X.X.X.X.X",
"-X.X.X.X.X.X.X.X.X.X.X.X.X.X.X.X.X-X.X.X.X.X'.9.@X*XgXzXkXbXbXmXmXhXbXkXiXaXgXgX~.Q.#X.XoX.X.X-X.X.X.X.X.X.X.X.X.X.X.X.X.X.X.X.X",
".X.X.X.X.X.X.X.X.X.X.X.X.X.X.X.X.X.X.X.XoX[.3 z p.m.V.G.fXhXhXBXBXkXhXsXZ.uXjXF.tXhX!.+X-X.X.X-X.X.X.X.X.X.X.X.X.X.X.X.X.X.X.X.X",
".X.X.X.X.X.X.X.X.X.X.X.X.X.X.X.X.X.X.XXX4X'.  8 C i.c.G.wXG.G.hXmXbXyXF.F.K.rXK.K.pXhXE.U.oXXX.X.X.X.X.X.X.X.X.X.X.X.X.X.X.X.X.X",
".X.X.X.X.X.X.X.X.X.X.X.X.X.X.X.X.XoX-X{.`.:.^ 6 ; : M j.f.z.F.eXyXuXwXV.j.A p d 1 d x.A J :X<X.X.X;X;X.X.X.X.X.X.X.X.X.X.X.X.X.X",
".X.X.X.X.X.X.X.X.X.X.X.X.X.X.X.X.X-X$X'.:.E zXE 2 4 x B 0.p.m.C.V.b.m.l.B p 5 2 2 5 b k 1 !.;X.X.X.X;X-X.X.X.X.X.X.X.X.X.X.X.X.X",
".X.X.X.X.X.X.X.X.X.X.X.X.X.X.XoX%XK ! kXdXuXH.C.9XkXR O C r.u.V.b.t.t.V + ^ MXdXnXvX2 : 0.d I oXoX.X.X.X.X.X.X.X.X.X.X.X.X.X.X.X",
".X.X.X.X.X.X.X.X.X.X.X.X.X.XoX.X!.R.~.tXaXpXJ.L.pXxX8.4.9Xl.q.n.c.0.8 1 R.dXBXNXNXBX/.! 8 h -.].|..X;X.X.X.X.X.X.X.X.X-X-X.X.X.X",
"-X.X.X.X.X.X.X.X.X.X.X.X.X-X;X+X2.uXaXS.4.W 3.3.3.W N.pXjXZ.a.V.m.p.c R fXlXkXmXbXbXDXT.  z =.<.%X%X;X.X.XXXXX.X.X.X.X>X,X.X.X.X",
";X.X.X.X.X.X.X.X.X.X.X.X:X*XU A t.m.H.N.> @ @ @ @ # W F.F.F.F.C.C.F.sXfXF.uXmXAXMXkXNXR.@ 8 A fXBXMX].{..X<X:X.X.X.X.X.X.X.X.X.X",
".X.X.X.X.X-X-X.X.X.X.X.XoX}.3 8 y.d.M > R.0X~.E.^.qXR > N.H.C.p.g.F.wXG.C.uXmXmXbXkXbXdX9X5 1 rXlXmX&X%X%X<.I.:XXX.X.X.X.X.X.X.X",
".X.X.X.X.X.X-X.X.X.X.X.XoX$X= 8 0.l p R vXDXBXNXBXDXR.T N.F.C.g.h.Z.eXeXZ.eXsXkXbXbXsXgXgX~ Y Z 8.gXbXlX9X  S 4XoX.X.X.X.X.X.X.X",
".X.X.X.X.X-X-X-X.X.X.XXXoXW.> < z = E NXlXbXAXmXkXhXlXcXG.F.H.F.F.F.fXfXZ.C.G.fXkXjXG.V.S.cX9X5 W K.jXyXN.5 R 7X:X.X.X.X.X.X.X.X",
"-X.X.X.X.X-X-X.X.XoX:X4X.X2.k.c # E.iXwXfXbXmXbXjXG.wXrXJ.J.J.J.J.J.G.G.Z.C.Z.G.G.G.C.C.C.H.eX0X9XC.G.F.Z.0XR.<.-XoX.X.X.X.X.X.X",
";X.X.X.X.X.X.X.X:X{.'.U.#XQ.gXv X iXxXC.jXhXyXyXtXL.3.d g g g g g g 7.L.F.Z.Z.C.C.C.iXyXC.C.H.gXwXV.V.wXgXZX6.@ '.<X.X.X.X.X.X.X",
"-X.X.X.X.X.X.X.X,X#X>.D /.DXNX! 1 3.N.F.sXuXC.S.C.7.T 4 2 2 2 2 2 4 W 8.F.F.Z.Z.C.F.fXsXZ.C.C.C.G.G.Z.yXlXlX6.7 !.,X.X.X.X.X.X.X",
".X.X.X.X.X.X.X{.I.&XvX0XdXbXbXiX5.$ c F.H.F.F.K.5.# ^ MXdXsXsXsXdXvX7 > C.J.Z.Z.Z.F.G.F.C.Z.C.C.uXjXG.F.A.Z.eX0X6.].oX.X.X.X.X.X",
".X.X.X.X.X.XoX'.a ^.SXNXbXkXmXaXC.W 5.G.C.H.K.Z 6 ~ qXSXNXBXDXBXBXSX^.E 6 A j.F.G.C.p.g.Z.Z.Z.G.eXtXF.Z.F.V.rXaX6 :.oXXX.X.X.X.X",
".X.X.X.X.XXXXX!.R 9XjXbXbXkXfXyXwXK.D.b.C.B.4.f T mXlXsXhXmXBXjXsXsXNX0X7 j V z.C.Z.a.g.F.F.C.b.m.C.F.V.b.Z.S.z.$ f ,X:X.X.X.X.X",
".X.X.X.XXX.X`.!.jXwXwXkXbXfXA.uXhXwXh.u.m.4.# R.mXbXyXA.jXbXhXwXC.Z.sXbXbXT O C h.F.F.C.F.F.b.e.l.G.G.h.u.V.c.w.1 L 1X:X.X.X.X.X",
".X.X.X.X.X{.@X9.tXF.Z.G.wXwXC.G.wXF.V.b.H.W X E.CXtXZ.Z.wXwXwXC.V.C.A.aXZXR   b w.f.F.n.p.n.F.n.C.G.F.V.b.f.M 1 W.>X;X-X.X.X.X.X",
".X.X.XXX{.I.l.b.Z.Z.G.tXG.C.C.wXeXF.Z.G.K.5.v E 6.Z.S.C.C.C.C.eXeXZ.S.A.6.5   : h l h.f.q.g.z.c.z.c.F.V.z.y.h 2 >X5XXX.X.X.X.X;X",
".X.X.XoX{.,.C f.S.C.eXhXeXC.C.uXhXG.Z.F.C.S.H.6 > B.H.G.Z.C.F.fXsXF.C.4.= @ @ @ @ # b q.q.q.q.q.q.t.V.h.q.r.z 2 !.,X.X-XXX.X-X,X",
".X.X.XXX.X1.*.r.i.V.G.wXF.C.Z.G.G.G.F.C.p.f.F.N.7.C.iXjXG.C.Z.G.G.Z.d 5 9X0X0X0X0X^.> : N &.q.q.q.q.i.t.q.q.l.0XY a I.%XoX.X.X.X",
".X.X.X.X.X$X9.x h s.v.F.G.G.G.G.C.l.h.g.g.z.Z.H.H.Z.eXiXF.Z.Z.C.S.Z.! ! gXgXaXgXgXgX^ f , -.g.g.b.x.h b y.q.g.gX! E Q.I.`.-X.X.X",
".X.X.X.XXXoXP.X . l =.m.V.n.m.V.b.q.q.u.b.C.F.Z.Z.Z.Z.Z.Z.Z.Z.Z.C.Z.fXzXZ.Z.G.C.V.F.cXE.5 5.tXrXfX0X4 1 B u.h.G.lXZXSX^ <.-XXX.X",
".X.X.X.XOX3XJ $ l + , u.u.t.u.t.t.q.f.V.i.p.Z.F.Z.Z.Z.F.Z.Z.Z.Z.Z.Z.F.F.C.uXjXG.C.C.F.Z.N.uXkXhXyXwXdXE + 5.tXhXkXbXbXdX#X]..X.X",
".X.X.XoX{.`.6.A C l l N &.q.0.0.q.g.V.G.z.z.F.G.G.F.l.f.V.F.Z.G.G.Z.C.C.C.eXyXF.eXsXF.G.fXbXkXiXA.S.aX~.^ v 6.bXmXhXtXtX@X`..X-X",
".X.XXX;XE.E A.M.p.y.q.N =.a.h.h.h.Z.F.C.G.G.Z.n.b.Z.h.i.V.F.C.b.n.Z.F.Z.Z.C.C.Z.yXfXG.wXhXjXiXC.G.wXV.aXfXX 7 bXlXiXC.S.8.P [.oX",
".XXXXX'.~.0XG.S.V.i.q.q.z.wXjXhXfXG.C.Z.F.F.Z.p.i.C.Z.C.Z.F.C.i.p.Z.F.Z.Z.Z.Z.Z.F.F.Z.Z.F.F.Z.C.uXjXG.H.N.+ Y bXtXZ.F.J.5.# I.3X",
"XX{.[.%X&XtXF.Z.H.D.-.: 6.lXiXtXwXZ.eXfXwXC.Z.b.b.F.G.G.G.F.C.b.b.Z.Z.Z.Z.G.C.p.l.F.F.c.i.b.Z.Z.wXeXwXv.i.. 7 yXH.C.F.l.V . <.4X",
"oXU.<.@XF.C.C.F.Z.5.E R ~.aXC.G.wXZ.eXsXG.F.F.G.Z.z.V.Z.c.n.F.G.F.Z.Z.F.F.m.h.q.g.G.G.b.a.n.F.F.F.S.M.-.k , x z.C.G.G.f.N . <.4X",
"oXI.;.=.g.S.F.H.B.# 7 kXtXC.C.uXhXG.C.Z.F.Z.B.Z.b.w.h.V.u.g.F.F.F.Z.Z.F.C.s.*.q.g.S.F.S.C.S.F.C.Z.n.e.h O V r.t.c.F.S.f.B . >.4X",
"4X>.1 0.r.p.C.M.e.. 5 pXK.C.C.G.wXF.C.F.L.5.> M i.r.t.u.q.g.G.J.F.Z.G.V.i.j $ 0.y.d.D.M.f.V.D.d.x # O < V r.r.q.u.i.i.*.l # <.5X",
"oX`.:.j m y.h.f.q.h 1 Z N.K.F.C.C.F.K.H.W c 8 B &.k N r.r.d.l.Z 3.F.b.f.q.z < j k k Z c h c Z k , : < b y.r.q.r.q.q.C h g W.*X,X",
".X<X:XJ x B q.q.q.C k O W B.H.J.F.8.N.5.# : r.y.N + j *.C &.N O 6 V.d.q.q.y.*.+ .   . O O . . . h B q.q.q.r.r.q.*.V z v I.VX8X;X",
"-X.XoX4XU $ l n n n b z ; 6 B.H.N.> X + j N r.r.&.b , O O O O j N t.r.q.q.r.q.b :   j b z z z z b n n n n q.&.A ,.<.1.*X7XXX.X.X",
".X.X.XoXY.<.d 8 m N N N h < v v d , , , b C &.&.N , O         z C C C &.&.&.V < $   : , , b B N N n b b n B k P %X;XXX;X;X.X.X.X",
".X.X.X.X3X4XP.K k 8 h h k j :.<.D j k k k h h k < o       X o h k k k k k k h       X o o , h h h h k k k x c >.;X:X-X.X.X.X.X.X",
".X.X.X.X.X.X4X-XJ 2 3 s K U :X3X:XU s K K a X   o 0 %     % 0 o     X X X X       X 9 0 0 4 s S S s P P P 1.#X,X.X.X-X.X.X.X.X.X",
".X.X.X.X.X.XXX:X}.'.].$X1X;X.X.XXXXX}. X.X$XP & 9 y t w   & y 0 9 * 9 0 0 9 *   @ e ( 0 o I..X X.X}.oXXX.XoX2X:X-X-X.X.X.X.X.X.X",
".X.X.X.X.X.X.X.X:X4X4X:X,X:X.X.X.XoXoXoXoXOX.XI 9 ( ' ) * q ) ' ) t ) ] ] t * & e _ 0 q :.|.3XoXoXoXoXoXoXXX.X.X.X.X.X.X.X.X.X.X",
".X.X.X.X.X.X.X.X.X.X.X.X.X.X.X.X.X.X.X.X.X.XOX'.L u ] X.) F ( ..| ( | o.o.q X y ) u @ P 5XoX.X.X.X.X.X.X.X.X.X.X.X.X.X.X.X.X.X.X",
".X.X.X.X.X.X.X.X.X.X.X.X.X.X.X.X.X.X.X.X.X.X.XOX+X2 ) (.+.` F  ... .X...` u u $.) 2 T.$XoX.X.X.X.X.X.X.X.X;X;X.X.X.X.X.X.X.X.X.X",
".X.X.X.X.X.X.X.X.X.X.X.X.X.X.X.X.X.X.X.X.X.X.XoX|.- ( _.#.| ` @.$.X.o.| F ) { _.i a :X3X.X.X.X.X.X.X.X.X.X-X>X;X-X-X.X-X.X.X.X.X",
".X.X.X.X.X.X.X.X.X.X.X.X.X.X.X.X.X.X.X.X.X.X.XoX{.3 ( ).+.X.+.%.%.+.o. .) ] #.).i s .XoX.X.X.X.X.X.X.X.X.X.X.X-X-X-X-X-X.X.X.X.X",
".X.X.X.X.X.X.X.X.X.X.X.X.X.X.X.X.X.X.X.X.X.X.XoX[.= ( ).+.$.(.] { (.@.......@.).i s XXoX.X.X.X.X.X.X.X.X.X.X.X.X.X.X.X.X.X.X.X-X",
".X.X.X.X.X.X.X.X.X.X.X.X.X.X.X.X.X.X.X.X.X.X.XoX{.3 ( ).+.X.[ r t [ o...' | #.).i s XXoX.X.X.X.X.X.X.X.X.X.X.X-X-X.X.X.X.X.X.X-X",
".X.X.X.X.X.X.X.X.X.X.X.X.X.X.X.X.X.X.X.X.X.X.XoX.Xs ( ).#.' t * 9 F |  .F ' #.).i 3 |.oX.X.X.X.X.X.X.X.X.X.X.X;X;X.X.X.X.X.X.X.X",
".X.X.X.X.X.X.X.X.X.X.X.X.X.X.X.X.X.X.X.X.X.X.XXXoX:.) ).#.' y 9 9 F  . ./ ' #._.i = [.oX.X.X.X.X.X.X.X.X.X.X.X.X.X.X.X.X.X.X.X.X",
".X.X.X.X.X.X.X.X.X.X.X.X.X.X.X.X.X.X.X.X.X.X.XXXXX<.` ).#...' t y | X. .F ' #._.( @ Y.OX.X.X.X.X.X.X.X.X.X.X.X.X.X.X.X.X.X.X.X.X",
".X.X.X.X.X.X.X.X.X.X.X.X.X.X.X.X.X.X.X.X.X.X.XoX[.a H %.{ ..#.[ { o.o...] ] +._.i X Y.OX.X.X.X.X.X.X.X.X.X.X.X.X.X.X.X.X.X.X.X.X",
".X.X.X.X.X.X.X.X.X.X.X.X.X.X.X.X.X.X.X.X.X.X XOX+X@ u o.) ` ..%.%.X...#.).] ) (.) & #X7X.X.X.X.X.X.X.X.X.X.X.X.X.X.X.X.X.X.X.X.X",
".X.X.X.X.X.X.X.X.X.X.X.X.X.X.X.X.X.X.X.X.X5X5X=X>.| +.#.+.u * O._.#.X.@._.u & +.$.| ! @X5X3XXX.X.X.X.X.X.X.X.X.X.X.X.X.X.X.X.X.X",
".X.X.X.X.X.X.X.X.X.X.X.X.X.X.X.X.X.X.XoX<XW.6.T.| _. .u G u y @.o.G | #.%.` e e  ._._ ^ 6.`..X:X-X.X.X.X;X>X1X-X.X.X.X.X.X.X.X.X",
".X.X.X.X.X.X.X.X.X.X.X.X.X.X.X.X.X.XXX,X!.f o ] %...q X X H ).@.H X H X...%.$.o w ..%.` o 3 I.8X,X;X-X1X1X1XNX;X.X.X.X.X.X.X.X.X",
".X.X.X.X.X.X.X.X.X.X.X.X.X.X.X.X.X<X-XU } ` t _ ) & w y u ) ] ' e   u ` _ ' ' F w & ) _ t ) } I.>X7X,X;X;X-X.X.X.X.X.X.X.X.X.X.X",
".X.X.X.X.X.X.X.X.X.X.X.X.X.X.X.X;X#XP @ w e * % o   o * * % % % o   o % % % % * o   o * 9 e * @ D +XNX:X.X.X.X.X.X.X.X.X.X.X.X.X",
".X.X.X.X.X.X.X.X.X.X.X.X.X.X.XXX>X!.<.>.>.:.K f D D D f f D K D D K K D D L L L P P L P P P K a 3 P 1X:X.X.X.X.X.X.X.X.X.X.X.X.X",
"-X.X.X.X.X.X.X.X.X.X.X.X.X.X.X.X-X1X1X8X1X1X7X7X7X7X7X6X6X7X7XCXCXCXCXCXCXCXCXCXCXCXCXCX8X<X<X:X.X$X;X-X.X.X.X.X.X.X.X.X.X.X.X.X"
};
